<?xml version="1.0" encoding="utf-8" ?>
<svg baseProfile="full" height="224" version="1.1" width="211" xmlns="http://www.w3.org/2000/svg" xmlns:ev="http://www.w3.org/2001/xml-events" xmlns:xlink="http://www.w3.org/1999/xlink"><defs /><polygon fill="white" points="113.0,164.99686274509804 112.0,164.99686274509804 111.0,164.99686274509804 110.0,164.99686274509804 109.0,164.99686274509804 108.0,164.99686274509804 107.0,164.99686274509804 106.0,164.99686274509804 105.00313725490196,164.0 105.0,163.99686274509804 104.00313725490196,163.0 104.0,162.99686274509804 103.00313725490196,162.0 103.0,161.99686274509804 102.00313725490196,161.0 102.00313725490196,160.0 102.00313725490196,159.0 102.00313725490196,158.0 102.0,157.99686274509804 101.00313725490196,157.0 101.00313725490196,156.0 101.00313725490196,155.0 101.0,154.99686274509804 100.00313725490196,154.0 100.0,153.99686274509804 99.00313725490196,153.0 99.00313725490196,152.0 99.0,151.99686274509804 98.00313725490196,151.0 98.0,150.99686274509804 97.00313725490196,150.0 97.00313725490196,149.0 98.0,148.00313725490196 98.00313725490196,148.0 99.0,147.00313725490196 99.00313725490196,147.0 100.0,146.00313725490196 100.00313725490196,146.0 100.00313725490196,145.0 100.00313725490196,144.0 100.0,143.99686274509804 99.00313725490196,143.0 99.0,142.99686274509804 98.0,142.99686274509804 97.00313725490196,142.0 97.0,141.99686274509804 96.0,141.99686274509804 95.00313725490196,141.0 95.0,140.99686274509804 94.0,140.99686274509804 93.0,140.99686274509804 92.00313725490196,140.0 92.0,139.99686274509804 91.0,139.99686274509804 90.00313725490196,139.0 90.0,138.99686274509804 89.0,138.99686274509804 88.00313725490196,138.0 88.0,137.99686274509804 87.0,137.99686274509804 86.00313725490196,137.0 86.0,136.99686274509804 85.00313725490196,136.0 85.0,135.99686274509804 84.00313725490196,135.0 84.0,134.99686274509804 83.00313725490196,134.0 83.0,133.99686274509804 82.00313725490196,133.0 82.0,132.99686274509804 81.00313725490196,132.0 81.0,131.99686274509804 80.00313725490196,131.0 80.00313725490196,130.0 80.0,129.99686274509804 79.00313725490196,129.0 79.00313725490196,128.0 79.0,127.99686274509804 78.00313725490196,127.0 78.00313725490196,126.0 78.0,125.99686274509804 77.00313725490196,125.0 77.00313725490196,124.0 77.00313725490196,123.0 77.00313725490196,122.0 77.0,121.99686274509804 76.00313725490196,121.0 76.00313725490196,120.0 76.00313725490196,119.0 77.0,118.00313725490196 77.00313725490196,118.0 77.00313725490196,117.0 77.00313725490196,116.0 77.00313725490196,115.0 77.00313725490196,114.0 77.00313725490196,113.0 77.00313725490196,112.0 77.00313725490196,111.0 77.00313725490196,110.0 77.00313725490196,109.0 77.00313725490196,108.0 77.00313725490196,107.0 77.00313725490196,106.0 77.00313725490196,105.0 77.00313725490196,104.0 77.00313725490196,103.0 77.0,102.99686274509804 76.00313725490196,102.0 76.00313725490196,101.0 76.00313725490196,100.0 76.00313725490196,99.0 76.0,98.99686274509804 75.00313725490196,98.0 75.00313725490196,97.0 75.00313725490196,96.0 75.0,95.99686274509804 74.00313725490196,95.0 74.00313725490196,94.0 74.0,93.99686274509804 73.00313725490196,93.0 73.00313725490196,92.0 73.00313725490196,91.0 73.0,90.99686274509804 72.00313725490196,90.0 72.00313725490196,89.0 72.00313725490196,88.0 72.0,87.99686274509804 71.00313725490196,87.0 71.00313725490196,86.0 71.00313725490196,85.0 71.0,84.99686274509804 70.00313725490196,84.0 70.0,83.99686274509804 69.00313725490196,83.0 69.00313725490196,82.0 69.0,81.99686274509804 68.00313725490196,81.0 68.0,80.99686274509804 67.00313725490196,80.0 67.0,79.99686274509804 66.00313725490196,79.0 66.0,78.99686274509804 65.0,78.99686274509804 64.00313725490196,78.0 64.00313725490196,77.0 64.00313725490196,76.0 64.0,75.99686274509804 63.00313725490196,75.0 63.00313725490196,74.0 63.00313725490196,73.0 63.00313725490196,72.0 63.0,71.99686274509804 62.00313725490196,71.0 62.00313725490196,70.0 62.00313725490196,69.0 62.00313725490196,68.0 62.00313725490196,67.0 62.0,66.99686274509804 61.00313725490196,66.0 61.00313725490196,65.0 61.00313725490196,64.0 61.00313725490196,63.0 61.00313725490196,62.0 61.00313725490196,61.0 61.00313725490196,60.0 61.00313725490196,59.0 61.00313725490196,58.0 61.0,57.99686274509804 60.00313725490196,57.0 60.00313725490196,56.0 60.00313725490196,55.0 60.00313725490196,54.0 60.00313725490196,53.0 60.00313725490196,52.0 60.00313725490196,51.0 60.00313725490196,50.0 60.00313725490196,49.0 61.0,48.00313725490196 61.99686274509804,49.0 61.99686274509804,50.0 62.0,50.00313725490196 62.99686274509804,51.0 63.0,51.00313725490196 63.99686274509804,52.0 63.99686274509804,53.0 64.0,53.00313725490196 64.99686274509804,54.0 64.99686274509804,55.0 65.0,55.00313725490196 65.99686274509804,56.0 66.0,56.00313725490196 66.99686274509804,57.0 66.99686274509804,58.0 67.0,58.00313725490196 67.99686274509804,59.0 68.0,59.00313725490196 68.99686274509804,60.0 68.99686274509804,61.0 69.0,61.00313725490196 69.99686274509804,62.0 70.0,62.00313725490196 70.99686274509804,63.0 70.99686274509804,64.0 71.0,64.00313725490196 71.99686274509804,65.0 71.99686274509804,66.0 72.0,66.00313725490196 72.99686274509804,67.0 73.0,67.00313725490196 73.99686274509804,68.0 73.99686274509804,69.0 74.0,69.00313725490196 74.99686274509804,70.0 74.99686274509804,71.0 75.0,71.00313725490196 75.99686274509804,72.0 76.0,72.00313725490196 76.99686274509804,73.0 76.99686274509804,74.0 77.0,74.00313725490196 77.99686274509804,75.0 78.0,75.00313725490196 78.99686274509804,76.0 78.99686274509804,77.0 79.0,77.00313725490196 79.99686274509804,78.0 79.99686274509804,79.0 80.0,79.00313725490196 80.99686274509804,80.0 80.99686274509804,81.0 80.0,81.99686274509804 79.0,81.99686274509804 78.00313725490196,81.0 78.0,80.99686274509804 77.0,80.99686274509804 76.00313725490196,80.0 76.0,79.99686274509804 75.0,79.99686274509804 74.99686274509804,80.0 74.99686274509804,81.0 74.99686274509804,82.0 74.99686274509804,83.0 75.0,83.00313725490196 75.99686274509804,84.0 75.99686274509804,85.0 76.0,85.00313725490196 76.99686274509804,86.0 76.99686274509804,87.0 77.0,87.00313725490196 77.99686274509804,88.0 77.99686274509804,89.0 78.0,89.00313725490196 78.99686274509804,90.0 78.99686274509804,91.0 79.0,91.00313725490196 79.99686274509804,92.0 79.99686274509804,93.0 80.0,93.00313725490196 80.99686274509804,94.0 80.99686274509804,95.0 81.0,95.00313725490196 81.99686274509804,96.0 81.99686274509804,97.0 82.0,97.00313725490196 82.99686274509804,98.0 82.99686274509804,99.0 83.0,99.00313725490196 83.99686274509804,100.0 83.99686274509804,101.0 84.0,101.00313725490196 84.99686274509804,102.0 84.99686274509804,103.0 85.0,103.00313725490196 85.99686274509804,104.0 85.99686274509804,105.0 86.0,105.00313725490196 86.99686274509804,106.0 86.99686274509804,107.0 86.99686274509804,108.0 86.99686274509804,109.0 87.0,109.00313725490196 87.99686274509804,110.0 87.99686274509804,111.0 87.99686274509804,112.0 87.99686274509804,113.0 87.99686274509804,114.0 87.99686274509804,115.0 87.99686274509804,116.0 87.99686274509804,117.0 87.99686274509804,118.0 87.99686274509804,119.0 88.0,119.00313725490196 88.99686274509804,120.0 88.99686274509804,121.0 88.99686274509804,122.0 89.0,122.00313725490196 89.99686274509804,123.0 89.99686274509804,124.0 90.0,124.00313725490196 90.99686274509804,125.0 90.99686274509804,126.0 91.0,126.00313725490196 91.99686274509804,127.0 92.0,127.00313725490196 92.99686274509804,128.0 93.0,128.00313725490196 93.99686274509804,129.0 94.0,129.00313725490196 95.0,129.00313725490196 95.99686274509804,130.0 96.0,130.00313725490196 97.0,130.00313725490196 97.99686274509804,131.0 98.0,131.00313725490196 99.0,131.00313725490196 100.0,131.00313725490196 100.00313725490196,131.0 101.0,130.00313725490196 102.0,130.00313725490196 102.00313725490196,130.0 103.0,129.00313725490196 103.00313725490196,129.0 103.00313725490196,128.0 104.0,127.00313725490196 104.00313725490196,127.0 104.00313725490196,126.0 104.00313725490196,125.0 105.0,124.00313725490196 105.00313725490196,124.0 105.00313725490196,123.0 105.00313725490196,122.0 105.00313725490196,121.0 105.00313725490196,120.0 105.00313725490196,119.0 105.00313725490196,118.0 105.00313725490196,117.0 105.00313725490196,116.0 105.00313725490196,115.0 105.00313725490196,114.0 105.00313725490196,113.0 105.00313725490196,112.0 105.00313725490196,111.0 105.00313725490196,110.0 105.00313725490196,109.0 105.00313725490196,108.0 105.00313725490196,107.0 105.00313725490196,106.0 105.00313725490196,105.0 105.00313725490196,104.0 105.00313725490196,103.0 105.00313725490196,102.0 105.00313725490196,101.0 105.00313725490196,100.0 105.00313725490196,99.0 105.00313725490196,98.0 105.00313725490196,97.0 105.00313725490196,96.0 105.00313725490196,95.0 105.00313725490196,94.0 105.00313725490196,93.0 105.00313725490196,92.0 105.00313725490196,91.0 105.00313725490196,90.0 105.00313725490196,89.0 105.00313725490196,88.0 105.00313725490196,87.0 105.00313725490196,86.0 105.00313725490196,85.0 105.00313725490196,84.0 105.00313725490196,83.0 105.00313725490196,82.0 105.00313725490196,81.0 105.00313725490196,80.0 105.00313725490196,79.0 105.00313725490196,78.0 105.00313725490196,77.0 105.00313725490196,76.0 105.00313725490196,75.0 105.00313725490196,74.0 105.00313725490196,73.0 105.00313725490196,72.0 105.00313725490196,71.0 105.00313725490196,70.0 105.0,69.99686274509804 104.00313725490196,69.0 104.0,68.99686274509804 103.0,68.99686274509804 102.99686274509804,69.0 102.0,69.99686274509804 101.99686274509804,70.0 101.0,70.99686274509804 100.99686274509804,71.0 100.0,71.99686274509804 99.99686274509804,72.0 99.0,72.99686274509804 98.99686274509804,73.0 98.99686274509804,74.0 98.0,74.99686274509804 97.99686274509804,75.0 97.99686274509804,76.0 97.99686274509804,77.0 97.99686274509804,78.0 97.0,78.99686274509804 96.99686274509804,79.0 96.0,79.99686274509804 95.00313725490196,79.0 95.00313725490196,78.0 95.0,77.99686274509804 94.00313725490196,77.0 94.00313725490196,76.0 94.00313725490196,75.0 94.0,74.99686274509804 93.00313725490196,74.0 93.00313725490196,73.0 93.00313725490196,72.0 93.00313725490196,71.0 93.00313725490196,70.0 93.00313725490196,69.0 93.00313725490196,68.0 94.0,67.00313725490196 94.00313725490196,67.0 94.00313725490196,66.0 94.00313725490196,65.0 94.00313725490196,64.0 95.0,63.00313725490196 95.00313725490196,63.0 95.00313725490196,62.0 95.00313725490196,61.0 95.00313725490196,60.0 96.0,59.00313725490196 96.00313725490196,59.0 96.00313725490196,58.0 96.00313725490196,57.0 97.0,56.00313725490196 97.00313725490196,56.0 97.00313725490196,55.0 97.00313725490196,54.0 98.0,53.00313725490196 98.00313725490196,53.0 98.00313725490196,52.0 98.00313725490196,51.0 99.0,50.00313725490196 99.00313725490196,50.0 99.00313725490196,49.0 99.00313725490196,48.0 100.0,47.00313725490196 100.00313725490196,47.0 100.00313725490196,46.0 100.00313725490196,45.0 100.00313725490196,44.0 101.0,43.00313725490196 101.00313725490196,43.0 101.00313725490196,42.0 101.00313725490196,41.0 102.0,40.00313725490196 102.00313725490196,40.0 102.00313725490196,39.0 102.00313725490196,38.0 103.0,37.00313725490196 103.00313725490196,37.0 103.00313725490196,36.0 103.00313725490196,35.0 104.0,34.00313725490196 104.00313725490196,34.0 104.00313725490196,33.0 104.00313725490196,32.0 105.0,31.00313725490196 105.00313725490196,31.0 105.00313725490196,30.0 105.00313725490196,29.0 106.0,28.00313725490196 106.00313725490196,28.0 106.00313725490196,27.0 106.00313725490196,26.0 107.0,25.00313725490196 107.00313725490196,25.0 107.00313725490196,24.0 107.00313725490196,23.0 108.0,22.00313725490196 108.00313725490196,22.0 108.00313725490196,21.0 108.00313725490196,20.0 108.00313725490196,19.0 109.0,18.00313725490196 109.00313725490196,18.0 110.0,17.00313725490196 110.99686274509804,18.0 110.99686274509804,19.0 110.99686274509804,20.0 110.99686274509804,21.0 111.0,21.00313725490196 111.99686274509804,22.0 111.99686274509804,23.0 111.99686274509804,24.0 112.0,24.00313725490196 112.99686274509804,25.0 112.99686274509804,26.0 112.99686274509804,27.0 113.0,27.00313725490196 113.99686274509804,28.0 113.99686274509804,29.0 113.99686274509804,30.0 114.0,30.00313725490196 114.99686274509804,31.0 114.99686274509804,32.0 114.99686274509804,33.0 115.0,33.00313725490196 115.99686274509804,34.0 115.99686274509804,35.0 115.99686274509804,36.0 116.0,36.00313725490196 116.99686274509804,37.0 116.99686274509804,38.0 116.99686274509804,39.0 117.0,39.00313725490196 117.99686274509804,40.0 117.99686274509804,41.0 117.99686274509804,42.0 118.0,42.00313725490196 118.99686274509804,43.0 118.99686274509804,44.0 118.99686274509804,45.0 118.99686274509804,46.0 119.0,46.00313725490196 119.99686274509804,47.0 119.99686274509804,48.0 119.99686274509804,49.0 120.0,49.00313725490196 120.99686274509804,50.0 120.99686274509804,51.0 120.99686274509804,52.0 121.0,52.00313725490196 121.99686274509804,53.0 121.99686274509804,54.0 121.99686274509804,55.0 122.0,55.00313725490196 122.99686274509804,56.0 122.99686274509804,57.0 122.99686274509804,58.0 122.99686274509804,59.0 123.0,59.00313725490196 123.99686274509804,60.0 123.99686274509804,61.0 123.99686274509804,62.0 124.0,62.00313725490196 124.99686274509804,63.0 124.99686274509804,64.0 124.99686274509804,65.0 124.99686274509804,66.0 125.0,66.00313725490196 125.99686274509804,67.0 125.99686274509804,68.0 125.99686274509804,69.0 125.99686274509804,70.0 125.99686274509804,71.0 125.99686274509804,72.0 125.99686274509804,73.0 125.99686274509804,74.0 125.99686274509804,75.0 125.0,75.99686274509804 124.99686274509804,76.0 124.99686274509804,77.0 124.99686274509804,78.0 124.0,78.99686274509804 123.99686274509804,79.0 123.0,79.99686274509804 122.00313725490196,79.0 122.00313725490196,78.0 122.00313725490196,77.0 122.0,76.99686274509804 121.00313725490196,76.0 121.00313725490196,75.0 121.0,74.99686274509804 120.00313725490196,74.0 120.00313725490196,73.0 120.0,72.99686274509804 119.00313725490196,72.0 119.00313725490196,71.0 119.0,70.99686274509804 118.00313725490196,70.0 118.0,69.99686274509804 117.00313725490196,69.0 117.0,68.99686274509804 116.0,68.99686274509804 115.0,68.99686274509804 114.99686274509804,69.0 114.99686274509804,70.0 114.0,70.99686274509804 113.99686274509804,71.0 113.99686274509804,72.0 113.99686274509804,73.0 113.99686274509804,74.0 113.99686274509804,75.0 113.99686274509804,76.0 113.99686274509804,77.0 113.99686274509804,78.0 113.99686274509804,79.0 113.99686274509804,80.0 113.99686274509804,81.0 113.99686274509804,82.0 113.99686274509804,83.0 113.99686274509804,84.0 113.99686274509804,85.0 113.99686274509804,86.0 113.99686274509804,87.0 113.99686274509804,88.0 113.99686274509804,89.0 113.99686274509804,90.0 113.99686274509804,91.0 113.99686274509804,92.0 113.99686274509804,93.0 113.99686274509804,94.0 113.99686274509804,95.0 113.99686274509804,96.0 113.99686274509804,97.0 113.99686274509804,98.0 113.99686274509804,99.0 113.99686274509804,100.0 113.99686274509804,101.0 113.99686274509804,102.0 113.99686274509804,103.0 113.99686274509804,104.0 113.99686274509804,105.0 113.99686274509804,106.0 113.99686274509804,107.0 113.99686274509804,108.0 113.99686274509804,109.0 113.99686274509804,110.0 113.99686274509804,111.0 113.99686274509804,112.0 113.99686274509804,113.0 113.99686274509804,114.0 113.99686274509804,115.0 113.99686274509804,116.0 113.99686274509804,117.0 113.99686274509804,118.0 113.99686274509804,119.0 113.99686274509804,120.0 113.99686274509804,121.0 113.99686274509804,122.0 114.0,122.00313725490196 114.99686274509804,123.0 114.99686274509804,124.0 114.99686274509804,125.0 114.99686274509804,126.0 114.99686274509804,127.0 115.0,127.00313725490196 115.99686274509804,128.0 116.0,128.00313725490196 116.99686274509804,129.0 117.0,129.00313725490196 117.99686274509804,130.0 118.0,130.00313725490196 118.99686274509804,131.0 119.0,131.00313725490196 120.0,131.00313725490196 121.0,131.00313725490196 121.00313725490196,131.0 122.0,130.00313725490196 123.0,130.00313725490196 123.00313725490196,130.0 124.0,129.00313725490196 125.0,129.00313725490196 125.00313725490196,129.0 126.0,128.00313725490196 126.00313725490196,128.0 127.0,127.00313725490196 127.00313725490196,127.0 128.0,126.00313725490196 128.00313725490196,126.0 129.0,125.00313725490196 129.00313725490196,125.0 129.00313725490196,124.0 130.0,123.00313725490196 130.00313725490196,123.0 130.00313725490196,122.0 131.0,121.00313725490196 131.00313725490196,121.0 131.00313725490196,120.0 131.00313725490196,119.0 131.00313725490196,118.0 131.00313725490196,117.0 131.00313725490196,116.0 131.00313725490196,115.0 131.00313725490196,114.0 131.00313725490196,113.0 131.00313725490196,112.0 131.00313725490196,111.0 132.0,110.00313725490196 132.00313725490196,110.0 132.00313725490196,109.0 132.00313725490196,108.0 132.00313725490196,107.0 133.0,106.00313725490196 133.00313725490196,106.0 133.00313725490196,105.0 133.00313725490196,104.0 134.0,103.00313725490196 134.00313725490196,103.0 134.00313725490196,102.0 135.0,101.00313725490196 135.00313725490196,101.0 135.00313725490196,100.0 136.0,99.00313725490196 136.00313725490196,99.0 136.00313725490196,98.0 137.0,97.00313725490196 137.00313725490196,97.0 137.00313725490196,96.0 138.0,95.00313725490196 138.00313725490196,95.0 138.00313725490196,94.0 139.0,93.00313725490196 139.00313725490196,93.0 140.0,92.00313725490196 140.00313725490196,92.0 140.00313725490196,91.0 140.00313725490196,90.0 141.0,89.00313725490196 141.00313725490196,89.0 141.00313725490196,88.0 142.0,87.00313725490196 142.00313725490196,87.0 142.00313725490196,86.0 143.0,85.00313725490196 143.00313725490196,85.0 143.00313725490196,84.0 144.0,83.00313725490196 144.00313725490196,83.0 144.00313725490196,82.0 144.00313725490196,81.0 144.00313725490196,80.0 144.0,79.99686274509804 143.0,79.99686274509804 142.99686274509804,80.0 142.0,80.99686274509804 141.0,80.99686274509804 140.99686274509804,81.0 140.0,81.99686274509804 139.0,81.99686274509804 138.00313725490196,81.0 138.00313725490196,80.0 139.0,79.00313725490196 139.00313725490196,79.0 140.0,78.00313725490196 140.00313725490196,78.0 140.00313725490196,77.0 141.0,76.00313725490196 141.00313725490196,76.0 141.00313725490196,75.0 142.0,74.00313725490196 142.00313725490196,74.0 143.0,73.00313725490196 143.00313725490196,73.0 143.00313725490196,72.0 144.0,71.00313725490196 144.00313725490196,71.0 144.00313725490196,70.0 145.0,69.00313725490196 145.00313725490196,69.0 146.0,68.00313725490196 146.00313725490196,68.0 146.00313725490196,67.0 147.0,66.00313725490196 147.00313725490196,66.0 148.0,65.00313725490196 148.00313725490196,65.0 148.00313725490196,64.0 149.0,63.00313725490196 149.00313725490196,63.0 149.00313725490196,62.0 150.0,61.00313725490196 150.00313725490196,61.0 151.0,60.00313725490196 151.00313725490196,60.0 151.00313725490196,59.0 152.0,58.00313725490196 152.00313725490196,58.0 153.0,57.00313725490196 153.00313725490196,57.0 153.00313725490196,56.0 154.0,55.00313725490196 154.00313725490196,55.0 154.00313725490196,54.0 155.0,53.00313725490196 155.00313725490196,53.0 156.0,52.00313725490196 156.00313725490196,52.0 156.00313725490196,51.0 157.0,50.00313725490196 157.00313725490196,50.0 157.00313725490196,49.0 158.0,48.00313725490196 158.99686274509804,49.0 158.99686274509804,50.0 158.99686274509804,51.0 158.99686274509804,52.0 158.99686274509804,53.0 158.99686274509804,54.0 158.99686274509804,55.0 158.99686274509804,56.0 158.99686274509804,57.0 158.99686274509804,58.0 158.99686274509804,59.0 158.0,59.99686274509804 157.99686274509804,60.0 157.99686274509804,61.0 157.99686274509804,62.0 157.99686274509804,63.0 157.99686274509804,64.0 157.99686274509804,65.0 157.99686274509804,66.0 157.99686274509804,67.0 157.99686274509804,68.0 157.0,68.99686274509804 156.99686274509804,69.0 156.99686274509804,70.0 156.99686274509804,71.0 156.99686274509804,72.0 156.0,72.99686274509804 155.99686274509804,73.0 155.99686274509804,74.0 155.99686274509804,75.0 155.99686274509804,76.0 155.0,76.99686274509804 154.99686274509804,77.0 154.99686274509804,78.0 154.0,78.99686274509804 153.99686274509804,79.0 153.0,79.99686274509804 152.0,79.99686274509804 151.99686274509804,80.0 151.0,80.99686274509804 150.99686274509804,81.0 150.0,81.99686274509804 149.99686274509804,82.0 149.99686274509804,83.0 149.0,83.99686274509804 148.99686274509804,84.0 148.99686274509804,85.0 148.0,85.99686274509804 147.99686274509804,86.0 147.99686274509804,87.0 147.0,87.99686274509804 146.99686274509804,88.0 146.99686274509804,89.0 146.99686274509804,90.0 146.99686274509804,91.0 146.0,91.99686274509804 145.99686274509804,92.0 145.99686274509804,93.0 145.99686274509804,94.0 145.0,94.99686274509804 144.99686274509804,95.0 144.99686274509804,96.0 144.0,96.99686274509804 143.99686274509804,97.0 143.99686274509804,98.0 143.99686274509804,99.0 143.0,99.99686274509804 142.99686274509804,100.0 142.99686274509804,101.0 142.99686274509804,102.0 142.99686274509804,103.0 142.0,103.99686274509804 141.99686274509804,104.0 141.99686274509804,105.0 141.99686274509804,106.0 141.99686274509804,107.0 141.99686274509804,108.0 141.99686274509804,109.0 141.99686274509804,110.0 141.99686274509804,111.0 141.99686274509804,112.0 141.99686274509804,113.0 141.99686274509804,114.0 141.99686274509804,115.0 141.99686274509804,116.0 142.0,116.00313725490196 142.99686274509804,117.0 142.99686274509804,118.0 142.99686274509804,119.0 142.99686274509804,120.0 142.99686274509804,121.0 142.99686274509804,122.0 142.99686274509804,123.0 142.0,123.99686274509804 141.99686274509804,124.0 141.99686274509804,125.0 141.99686274509804,126.0 141.0,126.99686274509804 140.99686274509804,127.0 140.99686274509804,128.0 140.0,128.99686274509804 139.99686274509804,129.0 139.0,129.99686274509804 138.99686274509804,130.0 138.99686274509804,131.0 138.0,131.99686274509804 137.99686274509804,132.0 137.0,132.99686274509804 136.99686274509804,133.0 136.0,133.99686274509804 135.99686274509804,134.0 135.0,134.99686274509804 134.99686274509804,135.0 134.0,135.99686274509804 133.99686274509804,136.0 133.0,136.99686274509804 132.99686274509804,137.0 132.0,137.99686274509804 131.0,137.99686274509804 130.99686274509804,138.0 130.0,138.99686274509804 129.99686274509804,139.0 129.0,139.99686274509804 128.0,139.99686274509804 127.0,139.99686274509804 126.99686274509804,140.0 126.0,140.99686274509804 125.0,140.99686274509804 124.0,140.99686274509804 123.99686274509804,141.0 123.0,141.99686274509804 122.0,141.99686274509804 121.99686274509804,142.0 121.0,142.99686274509804 120.0,142.99686274509804 119.99686274509804,143.0 119.0,143.99686274509804 118.99686274509804,144.0 118.99686274509804,145.0 118.99686274509804,146.0 119.0,146.00313725490196 119.99686274509804,147.0 120.0,147.00313725490196 120.99686274509804,148.0 121.0,148.00313725490196 121.99686274509804,149.0 121.99686274509804,150.0 121.0,150.99686274509804 120.99686274509804,151.0 120.0,151.99686274509804 119.99686274509804,152.0 119.99686274509804,153.0 119.0,153.99686274509804 118.99686274509804,154.0 118.99686274509804,155.0 118.0,155.99686274509804 117.99686274509804,156.0 117.99686274509804,157.0 117.99686274509804,158.0 117.99686274509804,159.0 117.99686274509804,160.0 117.0,160.99686274509804 116.99686274509804,161.0 116.0,161.99686274509804 115.99686274509804,162.0 115.0,162.99686274509804 114.99686274509804,163.0 114.0,163.99686274509804 113.99686274509804,164.0 113.0,164.99686274509804" stroke="none" /></svg>